<svg width="13" height="12" viewBox="0 0 17 16" fill="none" xmlns="http://www.w3.org/2000/svg">
<path d="M12.3221 0.435791C10.8434 0.435791 9.42427 1.09224 8.49799 2.1296C7.57171 1.09224 6.15254 0.435791 4.67389 0.435791C2.05651 0.435791 0 2.39704 0 4.89318C0 7.95663 2.88932 10.4528 7.26578 14.2456L8.49799 15.3073L9.7302 14.2375C14.1067 10.4528 16.996 7.95663 16.996 4.89318C16.996 2.39704 14.9395 0.435791 12.3221 0.435791ZM8.58297 13.0381L8.49799 13.1191L8.41301 13.0381C4.36797 9.54508 1.6996 7.23534 1.6996 4.89318C1.6996 3.27231 2.9743 2.05666 4.67389 2.05666C5.98258 2.05666 7.25728 2.85899 7.70768 3.96929H9.2968C9.73869 2.85899 11.0134 2.05666 12.3221 2.05666C14.0217 2.05666 15.2964 3.27231 15.2964 4.89318C15.2964 7.23534 12.628 9.54508 8.58297 13.0381Z" fill="currentColor"/>
</svg>
